<svg xmlns="http://www.w3.org/2000/svg" viewBox="0 0 383.53 169.76"><defs><style>.cls-1{fill:#33691E}.cls-2{fill:#fff}</style></defs><g id="Layer_2" data-name="Layer 2"><g id="Layer_1-2" data-name="Layer 1"><path class="cls-1" d="M188.69 6.87a.77.77 0 0 1 .69.79L189 23.84a.91.91 0 0 1 0 .17l-.64 8.13a2.56 2.56 0 0 1-.51 1.33l-.18.24a2.55 2.55 0 0 0-.51 1.71l2.87 42a2.49 2.49 0 0 1-.36 1.48l-12.52 20.76a1 1 0 0 0 .34 1.4l.55.35a1 1 0 0 1 .32 1.42l-1.17 1.83-.15.27-10 20.57a1.54 1.54 0 0 0-.13.92l6.91 39.35H92.34a1.51 1.51 0 0 1-1.5-1.68L96 118.57a.68.68 0 0 1 0-.14 27.81 27.81 0 0 1 6.14-13.09 9 9 0 0 0 2.22-5.32l.2-3.09a4.74 4.74 0 0 1 3-2.07l8.76-1.43a4.67 4.67 0 0 0 2.88-1.7l2.41-3a4.74 4.74 0 0 1 3.71-1.79 1.52 1.52 0 0 0 1.51-1.51v-1.88a5.65 5.65 0 0 0-2.47-4.65c-6.48-4.48-10.9-13.34-10.9-23.54 0-.61 0-1.22.06-1.82a.79.79 0 0 1-.06-.46 35.94 35.94 0 0 1 .71-11.92.19.19 0 0 1 0-.1c4-11.83 13.66-14.1 15-14.32 12.26-1.94 18.22 6.65 18.22 6.65a9.93 9.93 0 0 1 5.32 5.3s2.62 5.29 1.64 18.44c0 .87-.12 1.73-.22 2.58 0 .33-.08.62-.13.9-1.29 8.44-5.66 15.44-11.53 19a5.69 5.69 0 0 0-2.71 4.9v1.71a.72.72 0 0 0 .72.72 5.7 5.7 0 0 1 4.48 2.17l.19.24a12.68 12.68 0 0 0 7.87 4.63l5.69.93a5.77 5.77 0 0 1 .86.28l1.89-3a1.75 1.75 0 0 1 2.37-.57 1.73 1.73 0 0 0 2.37-.59L176 75l.35-1L181 36.89a1 1 0 0 0-.05-.46l-2.15-5.59a1.56 1.56 0 0 0-.42-.6l-5.56-4.85a3.77 3.77 0 0 1-1.25-2.25l-1.39-8.48.15.07a3.88 3.88 0 0 1 1.82 2l1.71 4.23a2.25 2.25 0 0 0 1.9 1.41 5.36 5.36 0 0 0 .19-.54l1.48-18.55a1 1 0 0 1 1.24-.92 1 1 0 0 1 .8.88s.73 10 .74 10.07L181.35.93a1 1 0 0 1 .91-.92 1 1 0 0 1 1.13 1l.26 10.7 1-9.44a1 1 0 0 1 1.18-.86 1 1 0 0 1 .79.93l.35 11 .9-5.8a.77.77 0 0 1 .85-.65z"/><path class="cls-1" d="M253.37 122.52v-.08a28.16 28.16 0 0 0-5.43-12.25 12.47 12.47 0 0 1-2.49-5.53l-.65-3.74a4.74 4.74 0 0 0-3-2.07l-10.21-1.68a.79.79 0 0 1-.51-.3l-3.26-4.12a5 5 0 0 0-3.82-1.88h-.28a.83.83 0 0 1-.83-.82v-2.18a4.65 4.65 0 0 1 2.3-4.08c6.62-3.73 11.42-11.87 12.23-21.56a.45.45 0 0 1 0-.16c.19-.56.35-1.12.5-1.7a23 23 0 0 0-5.43-24.69 14.87 14.87 0 0 0-.64-4.9c-2-6.56-9.38-12.06-16.23-11.75a16.14 16.14 0 0 0-15.39 16.12v.51a23 23 0 0 0-5.43 24.73 22.54 22.54 0 0 0 2.29 5.68.58.58 0 0 1 .08.22c1.46 7 5.1 12.95 9.92 16.4a6.44 6.44 0 0 1 2.74 5.23v2.13a.82.82 0 0 1-.82.82h-1.31a3.41 3.41 0 0 0-2.68 1.3l-3.72 4.7a.82.82 0 0 1-.52.3l-10.2 1.68a4.69 4.69 0 0 0-3 2.07s-.08 1.16-.21 3.2a8.67 8.67 0 0 1-2.14 5.12 27.77 27.77 0 0 0-6.23 13.2.19.19 0 0 1 0 .08l-5.25 46.32a.83.83 0 0 0 .82.92h83.23a.82.82 0 0 0 .82-.92z"/><path class="cls-1" d="M338.28 20.32l2-9.48a.8.8 0 0 1 .79-.63.8.8 0 0 1 .77.87l-.91 10 .18.34c.12.21-.62 8.11-.67 8.35l-1.9 8.47a1 1 0 0 1-.28.5l-.92.92a1 1 0 0 0-.3.65L334.25 79a14.88 14.88 0 0 1-3.25 8.29l-12.83 15.79a1 1 0 0 0 .13 1.43l.51.42a1 1 0 0 1 .11 1.45l-1.48 1.73-.07.1-7.07 10.52a13.17 13.17 0 0 0-2 9.63l6.57 37.41h-83.28L237 118.5a27.91 27.91 0 0 1 6-13.06 10.15 10.15 0 0 0 2.34-6c.11-1.64.17-2.56.17-2.56a4.72 4.72 0 0 1 3-2.07l8.41-1.38a5.52 5.52 0 0 0 3.44-2l2.23-2.83a4.63 4.63 0 0 1 3.61-1.74h1.57v-4a4.32 4.32 0 0 0-2-3.63c-.38-.24-.76-.51-1.12-.78-4.48.55-9.36.58-13-.9-6.33-2.58-3.06-17.73-.73-26-.05-.6-.1-1.21-.1-1.83A23.07 23.07 0 0 1 296 43.13c5.37 12.6 6 29.58.16 34.67-3.29 2.88-8 2.5-12 1.34-.46.3-.93.58-1.4.84a3.78 3.78 0 0 0-2 3.34v3.57h1.43a4.29 4.29 0 0 1 3.37 1.63l2 2.58a6.73 6.73 0 0 0 4.18 2.46l8 1.3a4.71 4.71 0 0 1 2 1l2.49-3a1 1 0 0 1 1.43-.14l1.1.89a1 1 0 0 0 1.43-.15l11.06-13.41a11.8 11.8 0 0 0 2.27-4.39l9.28-34.21a1 1 0 0 0 0-.46l-1.38-7-4.08-5.99a3.51 3.51 0 0 1-.6-2.29l.79-8.67c1.84-.74 1.24 1.57 1.38 2.57l.43 3.28a3.52 3.52 0 0 0 .77 1.76L332 7.66a1 1 0 0 1 2 .25l-1.72 12.29c.39-1.76 2.37-11.2 2.72-12.59l.41-2.24a.72.72 0 0 1 .8-.59.72.72 0 0 1 .63.79l-1.27 13.13 2.88-12.34a.78.78 0 0 1 .91-.59.79.79 0 0 1 .64.87z"/><path class="cls-1" d="M29.44 157.51S87.49 142 96.49 142a261.24 261.24 0 0 1 44.42 4.9c15.68 3.27 59.83 5.73 69.65 4.91s18-6.95 36.38-9.81a326.42 326.42 0 0 1 40.06-3.29c1.64 0 9.81.81 23.71 3.68s27 6.54 28.21 5.72 44.6 18.4 44.6 18.4H0z"/><path class="cls-1" d="M90.58 134.29v-.06a20 20 0 0 0-3.85-8.68 8.73 8.73 0 0 1-1.73-3.92l-.5-2.63a3.36 3.36 0 0 0-2.11-1.46l-7.23-1.19a.6.6 0 0 1-.36-.22l-2.31-2.91a3.5 3.5 0 0 0-2.76-1.34h-.2a.58.58 0 0 1-.58-.58v-1.54a3.3 3.3 0 0 1 1.62-2.9 14.14 14.14 0 0 0 2.2-1.55 7.93 7.93 0 0 0 7.76-7.72 7.94 7.94 0 0 0 1.63-11.74A7.12 7.12 0 0 0 80 74.41a6.08 6.08 0 0 0-5.87-7.77h-.06c-2.21-3.38-6.34-5.86-10.23-5.68a11.41 11.41 0 0 0-9.45 5.85 6.17 6.17 0 0 0-1.44-.17 6.11 6.11 0 0 0-5.87 7.77 7.13 7.13 0 0 0-2.17 11.42 7.95 7.95 0 0 0 1.62 11.74 8 8 0 0 0 8 7.73 8.17 8.17 0 0 0 2-.27 15.72 15.72 0 0 0 1.28 1 4.57 4.57 0 0 1 2 3.7v1.51a.59.59 0 0 1-.59.58h-.93a2.43 2.43 0 0 0-1.9.92l-2.64 3.33a.6.6 0 0 1-.36.22l-7.24 1.19A3.31 3.31 0 0 0 44 119s0 .82-.15 2.27a6.09 6.09 0 0 1-1.51 3.62 19.76 19.76 0 0 0-4.41 9.36.13.13 0 0 0 0 .06l-3.73 32.82a.6.6 0 0 0 .59.65h59a.59.59 0 0 0 .58-.65z"/><path class="cls-2" d="M64.72 121.84s9.19-4.55 14.79 6.63 7.4 8.49 7.4 8.49-20.7 7.6-22.19-15.12z"/><path class="cls-2" d="M63 121.34s5.63 3.13 1.84 10-1.76 6.85-1.76 6.85-11.29-8.01-.08-16.85zM59.44 110.12l-9.42 6.47 14.03 3.79-4.61-10.26zM135.09 99s11.19-5.54 18 8.06 9 10.33 9 10.33-25.19 9.2-27-18.39z"/><path class="cls-2" d="M134.14 98.15s5.2 5.86-1.92 12.22-4.77 7.16-4.77 7.16-9.75-13.73 6.69-19.38zM126.83 84.64l-13.69 9.11 21.07 3.99-7.38-13.1zM139.83 84.46l13.57 9.52-19.19 3.76 5.62-13.28z"/><circle class="cls-2" cx="135.03" cy="98.4" r="3.15"/><path class="cls-2" d="M216.91 103.74s10.32-5.11 16.6 7.44 8.31 9.53 8.31 9.53-23.24 8.53-24.91-16.97z"/><path class="cls-2" d="M216.93 102.3s7.16 8.07-2.64 16.83-6.57 9.86-6.57 9.86-13.42-18.91 9.21-26.69zM209.84 88.39l-11.81 9.06 18.18 4.28-6.37-13.34z"/><path class="cls-2" d="M222.84 88.89l12.2 8.85-18.83 3.99 6.63-12.84z"/><circle class="cls-2" cx="217.22" cy="101.89" r="3.15"/><path class="cls-2" d="M275.53 100.94s8.89-4.41 14.3 6.4 7.16 8.22 7.16 8.22-19.99 7.35-21.46-14.62z"/><path class="cls-2" d="M275.74 99.11s7.16 8.07-2.63 16.83-6.58 9.85-6.58 9.85-13.42-18.9 9.21-26.68zM267.76 84.45l-13.07 9 20.34 5.09-7.27-14.09zM280.76 84.12l-4.73 14 17.17-4.33-12.44-9.67z"/><circle class="cls-2" cx="275.85" cy="99.2" r="3.15"/></g></g></svg>